# xmcd
#
# Track frame offsets:
# 150
# 19243
# 34005
# 48778
# 61513
# 84218
# 105516
# 128095
# 143497
# 160846
# 193445
#
# Disc length: 2932 seconds
#
#
# Revision: 0
# Processed by: cddbd v1.4PL0 Copyright (c) Steve Scherf et al.
# Submitted via: FreeRIP 2.40 
#
DISCID=800b720b
DTITLE=Fleetwood Mac - Fleetwood Mac In Chicago
DYEAR=1972
DGENRE=Blues
TTITLE0=Watch Out
TTITLE1=OOH Baby
TTITLE2=South Indiana-Take 1
TTITLE3=South Indiana-Take 2
TTITLE4=Lastnight
TTITLE5=Red Hot Jam
TTITLE6=Worlds in a Tangle
TTITLE7=Talk With You
TTITLE8=Like it This Way
TTITLE9=Someday Soon Baby
TTITLE10=Hungry Country Girl
EXTD=
EXTT0=
EXTT1=
EXTT2=
EXTT3=
EXTT4=
EXTT5=
EXTT6=
EXTT7=
EXTT8=
EXTT9=
EXTT10=
PLAYORDER=
